Coordinates
version=1
nRows=19
nColumns=24
inDegrees=yes

Units are S.I. units (second, meters, Newtons, ...)
Angles are in degrees.

endheader
time	pelvis_tilt	pelvis_list	pelvis_rotation	pelvis_tx	pelvis_ty	pelvis_tz	hip_flexion_r	hip_adduction_r	hip_rotation_r	knee_angle_r	ankle_angle_r	subtalar_angle_r	mtp_angle_r	hip_flexion_l	hip_adduction_l	hip_rotation_l	knee_angle_l	ankle_angle_l	subtalar_angle_l	mtp_angle_l	lumbar_extension	lumbar_bending	lumbar_rotation
      1.25800000	      1.47881622	      3.41388652	     -0.62131712	      0.22065504	      1.03342834	      0.27657623	     17.42348061	     -5.57444133	     -7.82138255	    -64.09172999	      3.03402977	     -9.12667648	      9.27483665	      6.10516892	      7.76666847	      2.87444878	     -8.08846758	      3.36349631	     -9.64569960	     -0.99403806	    -10.07045513	     -5.79030327	      2.12682057
      1.26216667	      1.44034474	      3.27013704	     -0.67251427	      0.22564237	      1.03425632	      0.27635106	     17.97354390	     -5.39258509	     -7.75784571	    -63.53520549	      3.31565298	     -9.30046675	      9.20080931	      5.65400946	      7.61729573	      2.86759311	     -7.72754095	      3.40926362	     -9.61657446	     -1.01374038	    -10.07395445	     -5.57558299	      2.11538458
      1.26633333	      1.43682727	      3.11492699	     -0.72727171	      0.23063385	      1.03512072	      0.27615474	     18.46028548	     -5.18343767	     -7.68387904	    -62.89383819	      3.48736940	     -9.59443229	      8.78832638	      5.14612827	      7.45830581	      2.92644678	     -7.32784253	      3.43079951	     -9.68637532	     -1.12337748	    -10.11174767	     -5.38044276	      2.12054309
      1.27050000	      1.37176350	      2.95870850	     -0.77015303	      0.23563172	      1.03584914	      0.27592995	     18.99867847	     -4.97958509	     -7.61847126	    -62.20963799	      3.71300048	     -9.66544568	      8.72204830	      4.73113706	      7.29534511	      2.92053999	     -6.98328044	      3.49294515	     -9.63867066	     -1.14234738	    -10.06245905	     -5.14699535	      2.10551883
      1.27466667	      1.32903264	      2.80888986	     -0.81947134	      0.24062792	      1.03657415	      0.27573158	     19.49442149	     -4.77377411	     -7.54258903	    -61.46391986	      3.90271207	     -9.79213879	      8.65826989	      4.28968903	      7.13937870	      2.91433035	     -6.63165797	      3.56071631	     -9.61113811	     -1.16091159	    -10.03728188	     -4.92897778	      2.09560354
      1.27883333	      1.32786727	      2.65295579	     -0.87158964	      0.24560854	      1.03735203	      0.27555666	     19.92005653	     -4.54846988	     -7.45199732	    -60.63910966	      3.99708873	     -9.95355206	      7.20790901	      3.76708437	      6.98537236	      3.07463194	     -6.19895962	      3.45474632	     -9.88407116	     -1.61475405	    -10.08091191	     -4.73208520	      2.11663975
      1.28300000	      1.31680698	      2.48436156	     -0.90151493	      0.25057580	      1.03805941	      0.27536472	     20.33155513	     -4.31328157	     -7.38254303	    -59.75794535	      4.11141374	    -10.08767285	      7.12197116	      3.31251995	      6.80730739	      3.06092494	     -5.89488797	      3.63055814	     -9.72884360	     -1.64014911	    -10.11894074	     -4.49281395	      2.10573572
      1.28716667	      1.27993399	      2.33615399	     -0.95333363	      0.25555523	      1.03867007	      0.27519370	     20.76319532	     -4.09270299	     -7.28350146	    -58.84252940	      4.25857718	    -10.14893957	      7.08535473	      2.88133378	      6.65337065	      3.03437960	     -5.57251406	      3.70826007	     -9.69360719	     -1.65261021	    -10.10670149	     -4.26825217	      2.09034724
      1.29133333	      1.26128191	      2.16819965	     -0.97791337	      0.26049432	      1.03928253	      0.27502139	     21.14057689	     -3.84659035	     -7.19996206	    -57.83898244	      4.28582123	    -10.26877565	      7.01485581	      2.44239704	      6.47855527	      3.06683382	     -5.27385518	      3.77656282	     -9.68771033	     -1.67653126	    -10.14498581	     -4.05951739	      2.08992383
      1.29550000	      1.30813949	      2.02352679	     -1.01714950	      0.26545383	      1.03994285	      0.27486174	     21.42985597	     -3.62637446	     -7.10619463	    -56.78631747	      4.26367294	    -10.42330399	      6.89525363	      1.90690387	      6.33235177	      3.13346537	     -4.92074261	      3.83884343	     -9.72224767	     -1.71946659	    -10.24509152	     -3.86074958	      2.08537860
      1.29966667	      1.24671480	      1.89413272	     -1.06150514	      0.27041557	      1.04036408	      0.27470139	     21.83202524	     -3.41755128	     -6.99376951	    -55.71745259	      4.33303511	    -10.44410755	      6.84723493	      1.51503169	      6.20162253	      3.14083002	     -4.61880123	      3.91403283	     -9.73295826	     -1.73694177	    -10.20583369	     -3.65662608	      2.06594331
      1.30383333	      1.25085113	      1.73214982	     -1.06850493	      0.27534082	      1.04089183	      0.27452740	     22.11311506	     -3.17582797	     -6.91379999	    -54.53583157	      4.26184783	    -10.57526538	      6.75795241	      1.06729518	      6.03571858	      3.20774467	     -4.34965158	      3.96518599	     -9.78659583	     -1.76947037	    -10.27053463	     -3.44453474	      2.05882758
      1.30800000	      1.26715930	      1.62596736	     -1.09739616	      0.28027138	      1.04133299	      0.27438451	     22.38159492	     -2.98878541	     -6.80263226	    -53.33873852	      4.13421266	    -10.77118463	      6.58197253	      0.58036250	      5.93366966	      3.32726780	     -4.02003424	      4.00378095	     -9.90645123	     -1.83785135	    -10.33868497	     -3.30153081	      2.03238941
      1.31216667	      1.25645427	      1.51178141	     -1.13117718	      0.28520023	      1.04169917	      0.27424813	     22.65766104	     -2.78851671	     -6.68296806	    -52.09151025	      4.05438377	    -10.88909664	      6.07535719	      0.13015518	      5.82468690	      3.44220947	     -3.70191090	      3.96403877	    -10.15548108	     -2.05255074	    -10.37234570	     -3.14366586	      1.98058465
      1.31633333	      1.24805443	      1.39714713	     -1.12053809	      0.29012534	      1.04202028	      0.27405349	     22.89851127	     -2.61020507	     -6.61859361	    -50.78391835	      3.92181623	    -10.99683521	      5.94441859	     -0.29024530	      5.71037933	      3.51958165	     -3.45795487	      4.09950875	    -10.11311646	     -2.10178243	    -10.40911566	     -2.97370730	      1.97123601
      1.32050000	      1.21385973	      1.29604011	     -1.12146602	      0.29503950	      1.04224705	      0.27387826	     23.15185978	     -2.43670604	     -6.52609738	    -49.43501141	      3.80558279	    -11.06802733	      5.85714528	     -0.66666898	      5.61212107	      3.55976603	     -3.24145504	      4.18051333	    -10.13664197	     -2.13415308	    -10.41166880	     -2.80629343	      1.94290969
      1.32466667	      1.21777879	      1.20400163	     -1.12018938	      0.29997514	      1.04248265	      0.27373022	     23.33718457	     -2.27305710	     -6.44744597	    -48.02252415	      3.56078294	    -11.30261825	      5.71198334	     -1.11176429	      5.52275319	      3.65960092	     -2.96784332	      4.25876605	    -10.20244427	     -2.18883275	    -10.46753064	     -2.68457173	      1.89122625
      1.32883333	      1.19875159	      1.12304212	     -1.10699398	      0.30489697	      1.04263775	      0.27356573	     23.52526089	     -2.12597883	     -6.37575812	    -46.56525715	      3.33737466	    -11.47550307	      5.56476228	     -1.51256931	      5.44573534	      3.75488996	     -2.73167377	      4.32934094	    -10.27682341	     -2.24502382	    -10.48977231	     -2.55852842	      1.83640632
      1.33300000	      1.15967952	      1.04456264	     -1.08602121	      0.30982563	      1.04270876	      0.27338562	     23.71337137	     -1.98832307	     -6.31994745	    -45.06896920	      3.14667352	    -11.56688164	      5.46193676	     -1.87526971	      5.37177258	      3.81809326	     -2.53115962	      4.40966944	    -10.32434069	     -2.28278461	    -10.50395655	     -2.42491506	      1.79107878
